<?xml version="1.0" standalone="no"?>
<!DOCTYPE svg PUBLIC "-//W3C//DTD SVG 20010904//EN" "http://www.w3.org/TR/2001/REC-SVG-20010904/DTD/svg10.dtd">
<svg version="1.0" xmlns="http://www.w3.org/2000/svg" width="600.000000pt" height="600.000000pt"
    viewBox="0 0 600.000000 600.000000" preserveAspectRatio="xMidYMid meet">
    <metadata>
        Created by potrace 1.14, written by Peter Selinger 2001-2017
    </metadata>
    <g transform="translate(0.000000,600.000000) scale(0.100000,-0.100000)" fill="#000000" stroke="none">
        <path d="M0 3000 l0 -3000 3000 0 3000 0 0 3000 0 3000 -3000 0 -3000 0 0
-3000z m3775 2910 c249 -10 311 -20 490 -77 342 -110 591 -272 800 -523 123
-148 293 -434 348 -585 30 -84 84 -284 102 -377 l12 -67 -36 -5 c-20 -4 -144
-13 -276 -21 -222 -14 -541 -47 -591 -61 -19 -5 -25 5 -62 95 -61 152 -171
305 -266 370 -64 44 -214 117 -291 141 -70 22 -73 22 -805 20 -445 -1 -755 -5
-785 -11 -27 -6 -96 -33 -152 -60 -238 -117 -403 -344 -455 -627 -8 -42 -12
-167 -13 -332 0 -231 2 -264 15 -260 8 3 799 5 1758 5 l1742 0 5 -30 c3 -16 5
-68 3 -115 -1 -47 0 -277 3 -512 l6 -427 -1766 2 -1766 2 -3 -170 c-7 -388 37
-563 194 -770 59 -78 112 -126 206 -184 100 -63 181 -89 310 -99 149 -12 1543
-6 1585 6 120 37 368 235 419 335 14 26 34 57 45 68 11 11 36 59 55 106 30 75
51 121 59 131 2 2 31 -6 66 -17 105 -33 337 -54 582 -53 203 2 218 1 213 -16
-3 -9 -12 -53 -21 -97 -100 -499 -287 -863 -580 -1127 -226 -205 -496 -346
-819 -429 -121 -31 -271 -36 -1126 -33 -753 3 -965 8 -956 23 3 4 -8 6 -23 3
-109 -16 -530 162 -705 297 -32 25 -78 60 -102 76 -62 43 -242 220 -295 291
-50 65 -122 188 -180 305 -77 155 -170 472 -189 641 -13 109 -12 2293 0 2483
10 143 48 341 87 450 14 39 34 102 45 140 11 39 33 90 48 115 15 25 31 56 35
70 8 29 94 161 113 173 6 4 21 25 32 47 11 21 30 47 43 57 14 10 27 28 31 39
6 19 50 61 183 177 222 193 592 351 933 398 173 23 1262 36 1695 19z" />
        <path d="M2117 129 c7 -7 15 -10 18 -7 3 3 -2 9 -12 12 -14 6 -15 5 -6 -5z" />
    </g>
</svg>